# xmcd CD database file
#
# Track frame offsets:
#	150
#	42819
#	80751
#	95328
#	127755
#
# Disc length: 2209 seconds
#
# Revision: 0
# Processed by: cddbd v1.5.2PL0 Copyright (c) Steve Scherf et al.
# Submitted via: CDex 1.70beta2
#
DISCID=32089f05
DTITLE=FELIU GASULL I JOAN ALBERT AMARGOS - Feliu i Joan Albert
DYEAR=1977
DGENRE=Jazz
TTITLE0=El califa de cassoles
TTITLE1=Amarg Loreto
TTITLE2=Masia Blanca
TTITLE3=Fines vetes i benes serenes
TTITLE4=Els barbers indignats
EXTD=YEAR: 1977
EXTT0=
EXTT1=
EXTT2=
EXTT3=
EXTT4=
PLAYORDER=
